# TAPA FRONTAL 
# --------------------
v -8 4 6	# 1, A
v -8 4 -6	# 2, C
v 6 4 -6	# 3, D
v 6 4 6		# 4, B

# TAPA MEDIA
# --------------------
v -8 -2 6	# 5, A
v -8 -2 -6	# 6, C
v 6 -2 -6	# 7, D
v 6 -2 6	# 8, B

# TAPA TRASERA (CUADRO PEQUEÑO)
# ----------------------------
v -6 -8 4	# 9, E
v -6 -8 -4	# 10, G
v 4 -8 -4	# 11, J
v 4 -8 4	# 12, I

# CARA FRONTAL
# ------------
f 1 4 2
f 3 2 4	

# CARA MEDIA
# ----------
f 5 8 6
f 7 6 8 

# CARA TRASERA
# -----------
f 9 10 12
f 11 12 10

# CARAS LATERALES -> TAPA FRONTAL + MEDIA
# ---------------------------------------
f 1 5 4
f 4 5 8

f 4 8 3
f 3 8 7

f 3 7 6
f 6 2 3

f 2 6 5
f 5 1 2

# CARAS LATERALES -> TAPA MEDIA + TRASERA
# ---------------------------------------
f 5 10 9
f 10 5 6

f 6 11 10
f 11 6 7

f 7 12 11
f 12 7 8

f 8 9 12
f 9 8 5
