jjjjjj# TAPA TRASERA
# -------------
v 0 0 0		# 1, PUNTO CENTRAL
v 0 0 6.4	# 2
v -2 0 6	# 3
v -3 0 5	# 4
v -4 0 4	# 5
v -4.5 0 2	# 6
v -4.1 0 0	# 7
v -3 0 -1	# 8
v -2 0 -2	# 9
v 0 0 -2.3	# 10
v 2 0 -2	# 11
v 3 0 -1	# 12
v 4 0 0		# 13
v 4.5 0 2	# 14
v 4 0 4		# 15
v 3 0 5		# 16
v 2 0 6		# 17


# TAPA FRONTAL
# -------------
v 0 1 0		# 18, PUNTO CENTRAL
v 0 1 6.4	# 19
v -2 1 6	# 20
v -3 1 5	# 21
v -4 1 4	# 22
v -4.5 1 2	# 23
v -4.1 1 0	# 24
v -3 1 -1	# 25
v -2 1 -2	# 26
v 0 1 -2.3	# 27
v 2 1 -2	# 28
v 3 1 -1	# 29
v 4 1 0		# 30
v 4.5 1 2	# 31
v 4 1 4		# 32
v 3 1 5		# 33
v 2 1 6		# 34

# CARAS FRONTALES
# ---------------
f 1 2 3
f 1 3 4
f 1 4 5
f 1 5 6
f 1 6 7
f 1 7 8
f 1 8 9
f 1 9 10
f 1 10 11
f 1 11 12
f 1 12 13
f 1 13 14
f 1 14 15
f 1 15 16
f 1 16 17
f 1 17 2

# CARAS TRASERAS
# --------------
f 18 20 19
f 18 21 20
f 18 22 21
f 18 23 22
f 18 24 23
f 18 25 24
f 18 26 25
f 18 27 26
f 18 28 27
f 18 29 28
f 18 30 29
f 18 31 30
f 18 32 31
f 18 33 32
f 18 34 33
f 18 19 34

# CARAS LATERALES
# ---------------
f 2 19 20
f 2 20 3

f 3 20 21
f 3 21 4

f 4 21 22
f 4 22 5

f 5 22 23
f 5 23 6

f 6 23 24
f 6 24 7

f 7 24 25
f 7 25 8

f 8 25 26
f 8 26 9

f 9 26 27
f 9 27 10

f 10 27 28
f 10 28 11

f 11 28 29
f 11 29 12

f 12 29 30
f 12 30 13

f 13 30 31
f 13 31 14

f 14 31 32
f 14 32 15

f 15 32 33
f 15 33 16

f 16 33 34
f 16 34 17

f 17 34 19
f 17 19 2



